<svg width="35" height="38" viewBox="0 0 35 38" fill="none" xmlns="http://www.w3.org/2000/svg">
<path d="M14.6218 0.581578C14.799 0.463626 15.0072 0.400696 15.2201 0.400696C15.433 0.400696 15.6412 0.463626 15.8184 0.581578C19.8962 3.3306 24.5446 5.1186 29.4135 5.81094C29.6707 5.84784 29.906 5.97627 30.0762 6.17267C30.2464 6.36906 30.3401 6.62025 30.3401 6.88014V16.8161C27.9168 15.5784 25.1421 15.2101 22.4799 15.7727C19.8176 16.3354 17.4292 17.7949 15.7139 19.9072C13.9986 22.0196 13.0605 24.6567 13.0563 27.3778C13.0521 30.0988 13.9822 32.7389 15.691 34.8565L15.6089 34.8889C15.3587 34.9854 15.0815 34.9854 14.8313 34.8889C5.08538 31.1369 0.100098 25.0025 0.100098 16.6001V6.88014C0.100137 6.61993 0.194122 6.36848 0.364769 6.17204C0.535416 5.97559 0.771249 5.84737 1.0289 5.81094C5.89704 5.11828 10.5446 3.3303 14.6218 0.581578ZM34.6601 27.4001C34.6601 24.8222 33.636 22.3499 31.8132 20.5271C29.9903 18.7042 27.518 17.6801 24.9401 17.6801C22.3622 17.6801 19.8899 18.7042 18.067 20.5271C16.2442 22.3499 15.2201 24.8222 15.2201 27.4001C15.2201 29.978 16.2442 32.4504 18.067 34.2732C19.8899 36.0961 22.3622 37.1201 24.9401 37.1201C27.518 37.1201 29.9903 36.0961 31.8132 34.2732C33.636 32.4504 34.6601 29.978 34.6601 27.4001ZM30.0247 23.3955C30.1253 23.4958 30.2051 23.615 30.2596 23.7462C30.314 23.8774 30.342 24.0181 30.342 24.1601C30.342 24.3022 30.314 24.4429 30.2596 24.5741C30.2051 24.7053 30.1253 24.8245 30.0247 24.9248L23.5447 31.4048C23.4444 31.5054 23.3252 31.5852 23.194 31.6396C23.0628 31.694 22.9222 31.7221 22.7801 31.7221C22.638 31.7221 22.4974 31.694 22.3662 31.6396C22.235 31.5852 22.1158 31.5054 22.0155 31.4048L19.8555 29.2448C19.6527 29.042 19.5387 28.7669 19.5387 28.4801C19.5387 28.1933 19.6527 27.9183 19.8555 27.7155C20.0583 27.5127 20.3333 27.3988 20.6201 27.3988C20.9069 27.3988 21.1819 27.5127 21.3847 27.7155L22.7801 29.113L28.4955 23.3955C28.5958 23.2949 28.715 23.2151 28.8462 23.1607C28.9774 23.1062 29.118 23.0782 29.2601 23.0782C29.4022 23.0782 29.5428 23.1062 29.674 23.1607C29.8052 23.2151 29.9244 23.2949 30.0247 23.3955Z" fill="white"/>
</svg>
