<svg width="48" height="33" viewBox="0 0 48 33" fill="none" xmlns="http://www.w3.org/2000/svg">
<path d="M38.8359 13.6276C38.2247 9.76701 36.5813 6.46514 34.0444 4.02201C31.3465 1.42645 27.7437 -0.0161559 24 0.000136513C20.6719 0.000136513 17.6025 1.09607 15.1238 3.16889C13.2295 4.76657 11.7709 6.81824 10.8844 9.13233C8.0475 9.58326 5.49844 10.7429 3.63 12.4483C1.25531 14.6139 0 17.5708 0 21.0001C0 24.3751 1.34813 27.4576 3.79594 29.6805C6.15375 31.8217 9.33375 33.0001 12.75 33.0001H37.125C40.1597 33.0001 42.7716 32.1967 44.6803 30.678C46.8525 28.9483 48 26.3805 48 23.2501C48 17.4517 43.4588 14.312 38.8359 13.6276ZM19.6519 26.2839L13.1625 19.0933L15.39 17.0833L19.5731 21.7201L29.5378 9.88889L31.8319 11.8211L19.6519 26.2839Z" fill="white"/>
</svg>
