<svg width="37" height="28" viewBox="0 0 37 28" fill="none" xmlns="http://www.w3.org/2000/svg">
<path d="M19.8671 25.2261V2.76199C19.8671 0.526616 21.8737 -0.770451 23.351 0.49902L36.0739 11.7311C37.3087 12.835 37.3087 15.1531 36.0739 16.2294L23.351 27.4615C21.8737 28.7585 19.8671 27.4615 19.8671 25.2261ZM16.2068 16.257L3.48391 27.4891C2.02861 28.7861 -2.50439e-07 27.4615 -2.50439e-07 25.2261V2.76199C-2.50439e-07 0.526616 2.00656 -0.770451 3.48391 0.49902L16.2068 11.7311C16.4979 11.9854 16.7357 12.3239 16.8998 12.7179C17.064 13.1119 17.1497 13.5497 17.1497 13.994C17.1497 14.4384 17.064 14.8762 16.8998 15.2701C16.7357 15.6641 16.4979 16.0027 16.2068 16.257Z" fill="white"/>
</svg>
